# xmcd
#
# Track frame offsets: 
#        150
#        12467
#        23372
#        32515
#        42989
#        55066
#        67816
#        78063
#        86576
#        98910
#        115454
#        124932
#        139140
#        151262
#        161662
#
# Disc length: 2444 seconds
#
# Revision: 0
# Processed by: cddbd v1.5.2PL0 Copyright (c) Steve Scherf et al.
# Submitted via: ExactAudioCopy v0.99pb5
#
DISCID=b2098a0f
DTITLE=Slim Slip and The Sliders - Go Wild!
DYEAR=1900
DGENRE=Rock and Roll
TTITLE0=Go Wild
TTITLE1=I Don't Need You No More
TTITLE2=Raging Sea
TTITLE3=Cryin' Over You
TTITLE4=Bad Bad Boy
TTITLE5=Something Baby
TTITLE6=Slipstream
TTITLE7=Good Show, But No Go
TTITLE8=I Told You Baby
TTITLE9=Feelin' So Blue (That I Could Die)
TTITLE10=Watch Your Mouth
TTITLE11=Bird Doggin'
TTITLE12=My Baby Don't Want Me No More
TTITLE13=Love Me
TTITLE14=Blind John Thomas Blues
EXTD=
EXTT0=
EXTT1=
EXTT2=
EXTT3=
EXTT4=
EXTT5=
EXTT6=
EXTT7=
EXTT8=
EXTT9=
EXTT10=
EXTT11=
EXTT12=
EXTT13=
EXTT14=
PLAYORDER=
